<svg xmlns="http://www.w3.org/2000/svg" viewBox="0 0 512 512"  xmlns:v="https://vecta.io/nano"><path d="M462 512H50c-27.6 0-50-22.4-50-50V50C0 22.4 22.4 0 50 0h412c27.6 0 50 22.4 50 50v412c0 27.6-22.4 50-50 50z" fill="#111827"/><path d="M488.6 261.8v-11.6c0-6.4-5.2-11.6-11.6-11.6H273.4v-29.1h52.3c12.8 0 23.3-10.4 23.3-23.3v-93c0-12.8-10.4-23.3-23.3-23.3H186.2c-12.8 0-23.3 10.4-23.3 23.3v93c0 12.8 10.4 23.3 23.3 23.3h52.3v29.1H35c-6.4 0-11.6 5.2-11.6 11.6v11.6c0 6.4 5.2 11.6 11.6 11.6h75.6v29.1H69.9c-12.8 0-23.3 10.4-23.3 23.3v93c0 12.8 10.4 23.3 23.3 23.3h116.3c12.8 0 23.3-10.4 23.3-23.3v-93c0-12.8-10.4-23.3-23.3-23.3h-40.7v-29.1h221v29.1h-40.7c-12.8 0-23.3 10.4-23.3 23.3v93c0 12.8 10.4 23.3 23.3 23.3h116.3c12.8 0 23.3-10.4 23.3-23.3v-93c0-12.8-10.4-23.3-23.3-23.3h-40.7v-29.1H477c6.4 0 11.6-5.2 11.6-11.6zM209.5 163v-46.5h93V163h-93zM163 395.6H93.2V349H163v46.6zm255.8 0H349V349h69.8v46.6z" fill="#e5e7eb"/></svg>
